<?xml version="1.0" encoding="UTF-8" standalone="no"?>
<!DOCTYPE svg PUBLIC "-//W3C//DTD SVG 1.1//EN" "http://www.w3.org/Graphics/SVG/1.1/DTD/svg11.dtd">
<svg version="1.1" xmlns="http://www.w3.org/2000/svg" xmlns:xlink="http://www.w3.org/1999/xlink" preserveAspectRatio="xMidYMid meet" viewBox="0 0 160 645" width="160" height="645"><defs><path d="M93.24 7.15L115.58 8.77L114.63 184.77L119.88 313.66L136.55 404.22L152.95 462.07L139.99 469.31L119.93 455.29L113.27 505.7L131.41 631.5L106.87 638.12L96.46 592.8L87.72 619.56L64.08 621.64L75.01 539.42L67.54 395.17L64.3 270.46L24 302.07L9.43 282.36L48.51 201.03L59.41 120.87L58.86 31.82L62.38 19.88L93.24 7.15Z" id="cFbfNF4Xw"></path><path d="M109.1 1.44L109.89 1.48L110.65 1.55L111.38 1.63L112.08 1.73L112.76 1.85L113.41 1.99L114.04 2.14L114.63 2.32L115.2 2.51L115.75 2.72L116.26 2.95L116.75 3.19L117.22 3.46L117.65 3.74L118.06 4.04L118.45 4.36L118.8 4.7L119.13 5.05L119.44 5.43L119.71 5.82L119.96 6.23L120.18 6.66L120.27 6.87L120.35 7.15L120.44 7.48L120.51 7.87L120.59 8.32L120.66 8.82L120.73 9.38L120.8 9.99L120.87 10.65L120.93 11.36L120.99 12.12L121.04 12.92L121.1 13.77L121.15 14.67L121.2 15.6L121.24 16.58L121.28 17.6L121.32 18.66L121.35 19.75L121.38 20.88L121.41 22.04L121.44 23.24L121.46 24.46L121.48 25.72L121.49 27.01L121.5 28.32L121.51 29.66L121.52 31.03L121.52 32.42L121.52 33.83L121.51 35.26L121.5 36.71L121.49 38.17L121.47 39.66L121.45 41.16L121.42 42.67L121.39 44.19L121.36 45.73L121.33 47.27L121.28 48.83L121.22 51.34L121.16 53.91L121.1 56.53L121.04 59.19L120.98 61.89L120.93 64.63L120.88 67.41L120.84 70.23L120.8 73.08L120.76 75.96L120.72 78.87L120.69 81.8L120.66 84.76L120.63 87.74L120.61 90.74L120.58 93.75L120.57 96.78L120.55 99.82L120.54 102.88L120.53 105.93L120.52 109L120.52 112.06L120.52 115.13L120.52 118.19L120.53 121.25L120.54 124.31L120.55 127.35L120.57 130.38L120.59 133.4L120.61 136.4L120.63 139.39L120.66 142.35L120.69 145.29L120.73 148.21L120.76 151.09L120.8 153.95L120.85 156.77L120.89 159.56L120.94 162.31L121 165.03L121.01 165.52L121.02 166.02L121.03 166.53L121.03 167.06L121.04 167.59L121.05 168.13L121.06 168.68L121.06 169.24L121.07 169.8L121.07 170.37L121.08 170.94L121.08 171.52L121.09 172.1L121.09 172.69L121.09 173.27L121.1 173.86L121.1 174.45L121.1 175.04L121.1 175.63L121.1 176.22L121.1 176.8L121.1 177.39L121.1 177.97L121.1 178.54L121.1 179.11L121.1 179.68L121.1 180.24L121.09 180.79L121.09 181.33L121.09 181.87L121.08 182.4L121.08 182.91L121.07 183.42L121.07 183.92L121.06 184.4L121.05 184.87L121.05 185.33L121.04 185.77L121.03 186.2L121.02 186.61L121.01 187.02L121.01 187.43L121 187.85L121 188.27L120.99 188.69L120.99 189.11L120.99 189.54L120.99 189.96L121 190.39L121 190.82L121 191.25L121.01 191.68L121.02 192.1L121.03 192.53L121.04 192.95L121.05 193.37L121.06 193.79L121.07 194.21L121.09 194.62L121.1 195.02L121.12 195.42L121.14 195.82L121.15 196.21L121.17 196.59L121.19 196.97L121.21 197.34L121.24 197.7L121.26 198.05L121.28 198.4L121.31 198.73L121.33 199.05L121.36 199.37L121.38 199.67L121.41 199.97L121.44 200.25L121.47 200.51L121.5 200.77L121.53 201.01L121.56 201.24L121.59 201.45L121.62 201.67L121.65 201.92L121.68 202.18L121.71 202.47L121.73 202.78L121.75 203.12L121.77 203.47L121.79 203.84L121.8 204.23L121.81 204.64L121.82 205.07L121.83 205.51L121.84 205.97L121.84 206.45L121.84 206.94L121.84 207.45L121.84 207.97L121.84 208.5L121.83 209.04L121.82 209.6L121.81 210.17L121.8 210.74L121.79 211.33L121.77 211.93L121.75 212.53L121.74 213.14L121.71 213.76L121.69 214.39L121.67 215.02L121.64 215.65L121.61 216.29L121.58 216.94L121.55 217.58L121.51 218.23L121.48 218.88L121.44 219.53L121.4 220.18L121.36 220.83L121.31 221.48L121.27 222.13L121.15 223.96L121.04 225.81L120.94 227.69L120.86 229.6L120.8 231.54L120.75 233.51L120.71 235.52L120.69 237.56L120.68 239.64L120.69 241.77L120.71 243.94L120.75 246.16L120.8 248.42L120.87 250.74L120.96 253.11L121.06 255.53L121.18 258.01L121.31 260.56L121.46 263.16L121.62 265.83L121.81 268.57L122.01 271.38L122.22 274.25L122.46 277.21L122.71 280.23L122.97 283.34L123.26 286.53L123.56 289.8L123.88 293.15L124.22 296.59L124.58 300.12L124.95 303.75L125.34 307.47L125.75 311.28L126.18 315.2L126.63 319.21L127.1 323.33L127.59 327.55L128.09 331.88L128.62 336.33L129.04 339.81L129.48 343.27L129.94 346.68L130.4 350.07L130.88 353.41L131.38 356.73L131.89 360L132.41 363.25L132.95 366.45L133.5 369.62L134.06 372.76L134.64 375.86L135.23 378.92L135.84 381.95L136.46 384.94L137.09 387.89L137.74 390.81L138.4 393.69L139.08 396.54L139.76 399.34L140.47 402.11L141.18 404.85L141.91 407.54L142.65 410.2L143.41 412.82L144.18 415.4L144.96 417.95L145.76 420.45L146.56 422.92L147.39 425.35L148.22 427.75L149.07 430.1L149.93 432.41L150.81 434.69L151.7 436.93L152.6 439.12L153.51 441.28L154.44 443.4L155.38 445.48L156.33 447.52L156.79 448.49L157.21 449.42L157.61 450.32L157.98 451.19L158.33 452.02L158.64 452.82L158.92 453.59L159.17 454.34L159.39 455.05L159.58 455.74L159.74 456.41L159.87 457.05L159.97 457.67L160.03 458.26L160.06 458.84L160.06 459.4L160.02 459.94L159.96 460.46L159.85 460.97L159.71 461.46L159.54 461.94L159.33 462.4L159.09 462.86L158.81 463.31L158.49 463.74L158.14 464.17L157.75 464.6L157.32 465.02L156.85 465.43L156.35 465.84L155.8 466.25L155.22 466.66L154.6 467.07L153.94 467.49L153.24 467.9L152.49 468.32L151.71 468.75L150.89 469.18L150.02 469.62L149.11 470.07L148.47 470.38L147.86 470.67L147.28 470.95L146.73 471.21L146.2 471.46L145.69 471.69L145.21 471.9L144.75 472.1L144.31 472.28L143.89 472.44L143.48 472.58L143.09 472.71L142.71 472.82L142.35 472.92L141.99 472.99L141.65 473.05L141.31 473.09L140.98 473.11L140.65 473.12L140.33 473.11L140.01 473.08L139.7 473.03L139.38 472.96L139.05 472.87L138.73 472.77L138.4 472.65L138.06 472.51L137.72 472.35L137.36 472.17L137 471.97L136.62 471.75L136.23 471.52L135.83 471.26L135.4 470.99L134.96 470.7L134.5 470.38L134.02 470.05L133.51 469.7L132.99 469.33L132.43 468.93L132.11 468.71L131.8 468.49L131.48 468.28L131.17 468.07L130.85 467.87L130.54 467.67L130.23 467.48L129.93 467.3L129.63 467.12L129.33 466.95L129.04 466.78L128.75 466.63L128.46 466.48L128.18 466.33L127.9 466.19L127.63 466.06L127.37 465.94L127.11 465.82L126.85 465.71L126.61 465.61L126.37 465.52L126.13 465.43L125.91 465.36L125.69 465.29L125.48 465.23L125.27 465.17L125.08 465.13L124.89 465.09L124.72 465.06L124.55 465.04L124.39 465.03L124.25 465.03L124.11 465.04L123.98 465.06L123.87 465.08L123.76 465.12L123.67 465.16L123.59 465.22L123.52 465.28L123.46 465.35L123.33 465.6L123.2 465.95L123.05 466.39L122.9 466.93L122.75 467.54L122.59 468.23L122.43 469L122.26 469.84L122.1 470.73L121.93 471.69L121.76 472.69L121.59 473.75L121.42 474.84L121.25 475.97L121.08 477.13L120.91 478.32L120.75 479.53L120.59 480.75L120.43 481.99L120.28 483.22L120.13 484.46L119.99 485.69L119.86 486.91L119.73 488.11L119.61 489.3L119.5 490.45L119.4 491.57L119.31 492.66L119.23 493.7L119.15 494.69L119.09 495.63L119.05 496.52L119.01 497.33L118.99 498.08L118.99 498.76L118.99 499.35L119.02 499.86L119.06 500.28L119.11 500.61L119.18 500.83L119.22 500.93L119.26 501.06L119.3 501.22L119.34 501.43L119.38 501.66L119.42 501.93L119.47 502.23L119.51 502.57L119.56 502.93L119.6 503.32L119.65 503.75L119.7 504.2L119.75 504.68L119.79 505.19L119.84 505.72L119.89 506.28L119.94 506.86L119.99 507.47L120.04 508.09L120.09 508.75L120.14 509.42L120.19 510.11L120.24 510.82L120.29 511.55L120.34 512.3L120.39 513.07L120.44 513.85L120.49 514.65L120.54 515.47L120.59 516.29L120.64 517.14L120.68 517.99L120.73 518.85L120.78 519.73L120.82 520.62L120.87 521.51L120.91 522.42L120.95 523.33L120.99 524.25L121.03 525.17L121.12 526.92L121.23 528.75L121.35 530.66L121.5 532.64L121.67 534.69L121.86 536.8L122.07 538.97L122.3 541.19L122.55 543.47L122.81 545.79L123.09 548.15L123.38 550.56L123.69 552.99L124.02 555.46L124.36 557.95L124.71 560.46L125.07 562.99L125.45 565.54L125.83 568.09L126.23 570.64L126.64 573.19L127.05 575.74L127.48 578.29L127.91 580.81L128.35 583.33L128.79 585.82L129.24 588.28L129.7 590.71L130.16 593.12L130.62 595.48L131.09 597.8L131.56 600.07L132.03 602.29L132.51 604.46L132.98 606.56L133.45 608.61L133.92 610.58L134.39 612.49L134.86 614.31L135.33 616.06L135.46 616.57L135.6 617.08L135.73 617.6L135.85 618.11L135.97 618.63L136.09 619.14L136.2 619.65L136.31 620.16L136.41 620.67L136.5 621.17L136.6 621.67L136.69 622.17L136.77 622.66L136.85 623.14L136.92 623.62L136.99 624.1L137.05 624.56L137.11 625.02L137.16 625.47L137.21 625.92L137.25 626.35L137.29 626.77L137.32 627.19L137.34 627.59L137.36 627.99L137.38 628.37L137.39 628.73L137.39 629.09L137.39 629.43L137.38 629.76L137.37 630.08L137.35 630.38L137.32 630.66L137.29 630.93L137.25 631.18L137.21 631.42L137.16 631.64L137.1 631.84L137.04 632.02L136.97 632.18L136.75 632.58L136.47 632.99L136.12 633.41L135.72 633.84L135.26 634.27L134.75 634.71L134.19 635.15L133.58 635.59L132.93 636.03L132.24 636.48L131.52 636.92L130.76 637.35L129.96 637.79L129.15 638.22L128.3 638.64L127.44 639.05L126.55 639.46L125.66 639.85L124.74 640.24L123.82 640.61L122.9 640.97L121.97 641.31L121.04 641.64L120.11 641.95L119.19 642.24L118.28 642.51L117.38 642.76L116.5 642.99L115.63 643.19L114.79 643.37L113.97 643.53L113.18 643.65L112.42 643.75L111.69 643.82L111 643.86L110.35 643.86L109.74 643.84L109.18 643.78L108.67 643.68L108.21 643.55L107.92 643.44L107.64 643.34L107.38 643.23L107.12 643.12L106.87 643.01L106.64 642.89L106.41 642.77L106.19 642.64L105.98 642.5L105.78 642.36L105.58 642.21L105.39 642.05L105.21 641.87L105.03 641.69L104.86 641.5L104.69 641.29L104.53 641.07L104.37 640.83L104.22 640.58L104.06 640.31L103.91 640.03L103.76 639.73L103.62 639.41L103.47 639.07L103.33 638.71L103.18 638.33L103.04 637.92L102.89 637.5L102.75 637.05L102.6 636.57L102.45 636.07L102.29 635.55L102.14 635L101.98 634.42L101.81 633.81L101.64 633.17L101.47 632.5L101.29 631.8L101.11 631.07L100.92 630.3L100.8 629.82L100.68 629.34L100.56 628.85L100.44 628.37L100.32 627.88L100.21 627.4L100.09 626.92L99.98 626.44L99.86 625.96L99.75 625.49L99.64 625.02L99.53 624.56L99.42 624.1L99.31 623.64L99.21 623.19L99.1 622.74L99 622.31L98.9 621.88L98.81 621.45L98.71 621.04L98.62 620.63L98.53 620.23L98.44 619.85L98.36 619.47L98.28 619.1L98.2 618.74L98.13 618.4L98.05 618.07L97.98 617.75L97.92 617.44L97.86 617.14L97.8 616.86L97.75 616.6L97.7 616.35L97.65 616.11L97.61 615.89L97.57 615.69L97.54 615.5L97.51 615.34L97.48 615.19L97.45 615.02L97.43 614.86L97.4 614.72L97.37 614.59L97.34 614.46L97.31 614.35L97.27 614.25L97.24 614.16L97.21 614.08L97.18 614.02L97.14 613.96L97.11 613.92L97.07 613.88L97.04 613.86L97 613.85L96.96 613.84L96.92 613.85L96.89 613.88L96.85 613.91L96.81 613.95L96.77 614L96.73 614.07L96.68 614.14L96.64 614.23L96.6 614.33L96.56 614.44L96.51 614.56L96.47 614.69L96.42 614.83L96.38 614.98L96.33 615.15L96.28 615.32L96.23 615.51L96.18 615.71L96.13 615.92L96.08 616.14L96.03 616.37L95.98 616.61L95.93 616.86L95.88 617.12L95.83 617.35L95.78 617.57L95.72 617.79L95.65 618.02L95.58 618.24L95.51 618.46L95.43 618.69L95.34 618.91L95.25 619.14L95.16 619.36L95.05 619.58L94.95 619.8L94.84 620.02L94.73 620.23L94.61 620.44L94.49 620.66L94.36 620.86L94.23 621.07L94.1 621.27L93.97 621.47L93.83 621.67L93.69 621.86L93.54 622.05L93.4 622.23L93.25 622.41L93.1 622.59L92.95 622.76L92.79 622.92L92.63 623.08L92.48 623.23L92.32 623.38L92.16 623.52L92 623.65L91.83 623.78L91.67 623.9L91.51 624.02L91.34 624.12L91.18 624.22L91.01 624.31L90.85 624.4L90.32 624.64L89.75 624.87L89.14 625.1L88.51 625.32L87.84 625.53L87.14 625.74L86.41 625.94L85.66 626.13L84.88 626.31L84.09 626.48L83.27 626.65L82.44 626.81L81.6 626.96L80.74 627.1L79.87 627.23L78.99 627.35L78.11 627.46L77.22 627.56L76.33 627.65L75.44 627.73L74.55 627.81L73.67 627.87L72.8 627.92L71.93 627.96L71.07 627.99L70.23 628.01L69.4 628.01L68.58 628.01L67.79 627.99L67.02 627.96L66.27 627.92L65.55 627.87L64.85 627.8L64.18 627.73L63.55 627.64L62.95 627.53L62.38 627.42L61.86 627.29L61.37 627.14L60.93 626.99L55.55 624.91L57.63 616.44L57.84 615.54L58.07 614.51L58.31 613.37L58.55 612.11L58.81 610.75L59.08 609.29L59.36 607.73L59.64 606.09L59.93 604.37L60.23 602.57L60.53 600.71L60.83 598.78L61.14 596.8L61.45 594.77L61.77 592.69L62.08 590.57L62.39 588.43L62.71 586.26L63.02 584.07L63.32 581.86L63.63 579.65L63.93 577.44L64.22 575.23L64.51 573.03L64.79 570.86L65.07 568.7L65.33 566.58L65.59 564.49L65.84 562.44L66.07 560.44L66.29 558.5L66.5 556.61L66.7 554.8L66.88 553.05L67.05 551.39L67.2 549.81L67.33 548.32L67.44 546.93L67.54 545.64L67.61 544.46L67.7 542.93L67.77 541.34L67.84 539.69L67.91 537.98L67.96 536.21L68.01 534.39L68.05 532.51L68.08 530.58L68.11 528.6L68.13 526.57L68.15 524.5L68.15 522.39L68.15 520.24L68.15 518.05L68.13 515.82L68.11 513.56L68.09 511.27L68.05 508.95L68.01 506.6L67.97 504.22L67.92 501.83L67.86 499.41L67.79 496.98L67.72 494.53L67.65 492.07L67.56 489.59L67.47 487.11L67.38 484.62L67.28 482.12L67.17 479.62L67.06 477.12L66.94 474.62L66.81 472.13L66.68 469.64L66.55 467.16L66.4 464.69L66.26 462.24L66.1 459.8L65.95 457.37L65.78 454.97L65.59 452.14L65.4 449.27L65.21 446.38L65.02 443.46L64.84 440.52L64.66 437.56L64.49 434.59L64.32 431.6L64.15 428.61L63.99 425.61L63.83 422.6L63.68 419.6L63.53 416.6L63.38 413.61L63.24 410.63L63.11 407.66L62.97 404.71L62.85 401.77L62.73 398.87L62.61 395.99L62.5 393.13L62.4 390.32L62.3 387.53L62.21 384.79L62.12 382.09L62.04 379.44L61.97 376.83L61.9 374.28L61.84 371.79L61.78 369.35L61.74 366.98L61.7 364.67L61.66 362.43L61.63 360.26L61.61 358.17L61.6 356.16L61.6 354.23L61.6 352.38L61.61 350.63L61.63 348.96L61.64 348.29L61.64 347.61L61.65 346.93L61.66 346.26L61.66 345.58L61.66 344.91L61.66 344.23L61.66 343.56L61.66 342.89L61.66 342.23L61.65 341.57L61.65 340.92L61.64 340.27L61.63 339.63L61.62 339L61.61 338.37L61.6 337.75L61.59 337.15L61.58 336.55L61.56 335.96L61.55 335.39L61.53 334.83L61.52 334.28L61.5 333.74L61.48 333.22L61.46 332.72L61.44 332.23L61.42 331.75L61.4 331.3L61.37 330.86L61.35 330.44L61.32 330.04L61.3 329.66L61.27 329.3L61.24 328.96L61.22 328.65L61.19 328.35L61.16 328.08L61.13 327.84L61.1 327.62L61.07 327.39L61.03 327.14L61 326.86L60.98 326.55L60.95 326.21L60.92 325.84L60.89 325.45L60.86 325.04L60.84 324.59L60.81 324.13L60.79 323.64L60.76 323.13L60.74 322.6L60.72 322.05L60.69 321.48L60.67 320.89L60.65 320.28L60.63 319.66L60.62 319.01L60.6 318.36L60.58 317.69L60.57 317L60.55 316.3L60.54 315.59L60.53 314.87L60.52 314.13L60.51 313.39L60.5 312.63L60.49 311.87L60.48 311.1L60.47 310.33L60.47 309.55L60.47 308.76L60.46 307.97L60.46 307.17L60.46 306.37L60.47 305.58L60.47 304.77L60.47 303.97L60.48 303.17L60.48 302.37L60.49 301.58L60.49 300.79L60.48 300L60.48 299.22L60.48 298.45L60.47 297.69L60.46 296.93L60.45 296.18L60.44 295.44L60.42 294.71L60.41 294L60.39 293.29L60.37 292.6L60.35 291.92L60.33 291.25L60.31 290.6L60.28 289.96L60.26 289.34L60.23 288.74L60.2 288.15L60.17 287.58L60.14 287.04L60.1 286.51L60.07 286L60.04 285.51L60 285.04L59.96 284.6L59.92 284.18L59.88 283.78L59.84 283.41L59.8 283.06L59.76 282.74L59.71 282.45L59.67 282.18L59.62 281.95L59.58 281.74L59.53 281.56L59.48 281.41L59.43 281.29L59.32 281.08L59.18 280.9L59.02 280.75L58.84 280.63L58.64 280.53L58.42 280.47L58.18 280.43L57.91 280.43L57.62 280.45L57.31 280.5L56.98 280.58L56.63 280.7L56.25 280.84L55.85 281.01L55.43 281.21L54.99 281.44L54.52 281.71L54.02 282L53.51 282.32L52.97 282.68L52.4 283.06L51.82 283.48L51.2 283.93L50.56 284.41L49.9 284.92L49.21 285.46L48.5 286.03L47.76 286.64L47 287.28L46.21 287.94L45.39 288.65L44.55 289.38L43.69 290.15L42.79 290.94L41.87 291.77L40.92 292.64L39.95 293.53L38.94 294.46L37.91 295.43L36.86 296.42L36.21 297.04L35.59 297.62L35 298.17L34.43 298.7L33.89 299.2L33.38 299.67L32.89 300.12L32.42 300.54L31.97 300.93L31.55 301.3L31.14 301.65L30.75 301.97L30.38 302.27L30.02 302.55L29.68 302.81L29.35 303.04L29.04 303.26L28.74 303.45L28.44 303.63L28.16 303.78L27.88 303.92L27.61 304.04L27.35 304.14L27.09 304.23L26.84 304.3L26.59 304.36L26.34 304.4L26.09 304.43L25.84 304.44L25.59 304.44L25.33 304.43L25.08 304.41L24.81 304.37L24.54 304.33L24.27 304.27L23.98 304.21L23.69 304.14L23.38 304.05L23.06 303.97L22.73 303.87L22.33 303.73L21.9 303.57L21.45 303.36L20.98 303.13L20.5 302.87L19.99 302.57L19.47 302.25L18.94 301.91L18.4 301.54L17.84 301.14L17.27 300.73L16.7 300.29L16.12 299.83L15.53 299.35L14.94 298.86L14.34 298.35L13.75 297.83L13.15 297.3L12.56 296.75L11.96 296.19L11.38 295.63L10.79 295.05L10.22 294.47L9.65 293.89L9.1 293.3L8.55 292.71L8.02 292.11L7.5 291.52L6.99 290.93L6.51 290.35L6.04 289.76L5.59 289.19L5.16 288.62L4.75 288.06L4.37 287.5L4.01 286.96L3.68 286.44L3.38 285.92L3.11 285.42L2.86 284.94L2.75 284.69L2.65 284.44L2.56 284.19L2.49 283.94L2.43 283.69L2.38 283.43L2.34 283.17L2.32 282.9L2.32 282.63L2.33 282.35L2.35 282.06L2.39 281.76L2.45 281.46L2.52 281.15L2.61 280.83L2.71 280.49L2.84 280.15L2.98 279.79L3.13 279.42L3.31 279.04L3.51 278.64L3.72 278.23L3.96 277.8L4.21 277.35L4.48 276.89L4.78 276.41L5.09 275.91L5.43 275.4L5.78 274.86L6.16 274.3L6.56 273.72L6.98 273.12L7.43 272.49L7.9 271.85L8.39 271.17L8.91 270.47L9.45 269.75L10.01 269L10.6 268.22L11.21 267.42L13.17 264.79L15.07 262.09L16.93 259.32L18.74 256.46L20.5 253.53L22.21 250.52L23.88 247.43L25.49 244.26L27.06 241.02L28.58 237.69L30.05 234.29L31.48 230.81L32.85 227.25L34.18 223.61L35.46 219.89L36.7 216.1L37.88 212.22L39.02 208.27L40.11 204.23L41.15 200.12L42.14 195.92L43.09 191.65L43.99 187.29L44.84 182.86L45.65 178.34L46.4 173.74L47.11 169.07L47.78 164.31L48.39 159.47L48.96 154.55L49.48 149.54L49.95 144.46L50.38 139.3L50.75 134.05L51.09 128.72L51.37 123.31L51.61 117.82L51.8 112.24L51.94 106.58L52.04 100.84L52.05 99.8L52.06 98.75L52.07 97.68L52.08 96.59L52.08 95.5L52.09 94.39L52.09 93.27L52.1 92.15L52.1 91.01L52.1 89.88L52.1 88.73L52.09 87.59L52.09 86.44L52.09 85.3L52.08 84.15L52.08 83.01L52.07 81.87L52.06 80.74L52.05 79.61L52.04 78.49L52.03 77.38L52.01 76.28L52 75.19L51.98 74.12L51.97 73.06L51.95 72.01L51.93 70.99L51.91 69.98L51.89 68.99L51.87 68.03L51.85 67.08L51.82 66.16L51.8 65.27L51.78 64.4L51.75 63.56L51.72 62.75L51.7 61.97L51.67 61.23L51.64 60.51L51.61 59.83L51.56 58.67L51.52 57.49L51.49 56.29L51.48 55.08L51.47 53.85L51.47 52.61L51.48 51.37L51.5 50.11L51.52 48.85L51.56 47.59L51.61 46.32L51.66 45.06L51.72 43.8L51.79 42.55L51.86 41.3L51.95 40.06L52.04 38.84L52.13 37.63L52.24 36.43L52.35 35.25L52.47 34.1L52.59 32.96L52.72 31.85L52.85 30.77L52.99 29.71L53.14 28.68L53.29 27.69L53.44 26.73L53.6 25.81L53.77 24.93L53.94 24.09L54.11 23.29L54.28 22.54L54.46 21.83L54.65 21.17L54.84 20.57L55.03 20.02L55.22 19.52L55.41 19.09L55.61 18.71L55.8 18.42L56.06 18.12L56.37 17.8L56.73 17.47L57.16 17.12L57.63 16.76L58.15 16.4L58.73 16.02L59.35 15.63L60.01 15.23L60.72 14.83L61.46 14.42L62.25 14L63.07 13.58L63.92 13.15L64.81 12.72L65.72 12.29L66.67 11.86L67.64 11.42L68.63 10.99L69.65 10.56L70.68 10.13L71.73 9.7L72.8 9.27L73.88 8.86L74.98 8.44L76.08 8.03L77.19 7.64L78.31 7.24L79.43 6.86L80.55 6.49L81.67 6.13L82.78 5.78L83.9 5.44L85 5.12L86.1 4.81L87.18 4.51L88.26 4.24L89.31 3.97L90.35 3.73L91.63 3.45L92.87 3.19L94.09 2.94L95.28 2.71L96.44 2.5L97.58 2.31L98.69 2.14L99.77 1.98L100.82 1.85L101.85 1.73L102.85 1.63L103.83 1.55L104.77 1.48L105.69 1.44L106.59 1.41L107.45 1.4L108.29 1.41L109.1 1.44ZM100.37 12.3L99.57 12.36L98.74 12.43L97.9 12.52L97.04 12.63L96.16 12.76L95.27 12.91L94.36 13.07L93.45 13.25L92.51 13.45L91.57 13.67L90.62 13.9L89.66 14.15L88.69 14.42L87.72 14.7L86.74 15L85.76 15.31L84.78 15.65L83.8 15.99L82.82 16.36L81.83 16.74L80.86 17.13L79.88 17.54L78.91 17.96L77.95 18.4L77.07 18.81L76.24 19.2L75.45 19.58L74.7 19.93L73.98 20.28L73.3 20.61L72.66 20.93L72.05 21.24L71.47 21.54L70.92 21.83L70.41 22.11L69.92 22.38L69.47 22.66L69.04 22.92L68.63 23.19L68.25 23.45L67.9 23.71L67.56 23.97L67.25 24.24L66.96 24.5L66.69 24.77L66.43 25.05L66.19 25.33L65.97 25.62L65.76 25.91L65.56 26.22L65.37 26.53L65.2 26.86L65.03 27.2L64.87 27.56L64.72 27.93L64.57 28.31L64.43 28.71L64.3 29.13L64.16 29.58L64.02 30.04L63.89 30.52L63.75 31.03L63.61 31.56L63.47 32.11L63.39 32.48L63.31 32.92L63.23 33.44L63.15 34.03L63.07 34.7L62.99 35.44L62.91 36.25L62.84 37.12L62.76 38.06L62.69 39.06L62.62 40.12L62.55 41.25L62.48 42.43L62.42 43.66L62.35 44.95L62.29 46.29L62.23 47.69L62.17 49.13L62.11 50.61L62.06 52.14L62.01 53.72L61.96 55.33L61.91 56.98L61.86 58.67L61.82 60.4L61.78 62.16L61.74 63.95L61.7 65.77L61.67 67.61L61.64 69.48L61.61 71.38L61.59 73.3L61.57 75.24L61.55 77.19L61.53 79.17L61.52 81.15L61.51 83.15L61.5 85.16L61.5 87.18L61.5 89.21L61.5 94.06L61.48 98.77L61.45 103.35L61.41 107.81L61.35 112.14L61.27 116.35L61.18 120.45L61.07 124.44L60.95 128.32L60.81 132.1L60.64 135.79L60.46 139.39L60.26 142.9L60.04 146.34L59.8 149.69L59.54 152.97L59.25 156.19L58.94 159.34L58.61 162.44L58.26 165.48L57.88 168.47L57.48 171.42L57.05 174.33L56.6 177.2L56.12 180.05L55.61 182.87L55.07 185.67L54.51 188.45L53.92 191.22L53.3 193.98L52.65 196.74L51.97 199.5L51.26 202.27L50.51 205.06L49.74 207.86L48.93 210.67L48.09 213.52L47.21 216.39L46.31 219.3L45.36 222.25L44.88 223.73L44.38 225.2L43.87 226.68L43.35 228.15L42.81 229.62L42.26 231.09L41.7 232.55L41.13 234.01L40.55 235.47L39.96 236.92L39.35 238.36L38.74 239.8L38.11 241.24L37.48 242.66L36.83 244.08L36.18 245.49L35.51 246.89L34.84 248.29L34.16 249.67L33.47 251.04L32.77 252.4L32.07 253.75L31.35 255.09L30.63 256.42L29.9 257.73L29.17 259.03L28.43 260.32L27.68 261.59L26.93 262.85L26.17 264.09L25.41 265.31L24.64 266.52L23.86 267.71L23.09 268.88L22.3 270.04L21.52 271.17L20.73 272.29L19.93 273.39L19.13 274.46L18.33 275.52L17.99 275.99L17.66 276.46L17.37 276.93L17.09 277.4L16.84 277.88L16.61 278.35L16.4 278.82L16.22 279.29L16.06 279.76L15.92 280.23L15.81 280.7L15.72 281.16L15.64 281.61L15.6 282.07L15.57 282.51L15.57 282.96L15.58 283.39L15.62 283.82L15.69 284.24L15.77 284.65L15.87 285.06L16 285.45L16.14 285.84L16.31 286.21L16.5 286.58L16.7 286.93L16.93 287.27L17.18 287.6L17.45 287.92L17.74 288.22L18.05 288.51L18.38 288.78L18.73 289.04L19.1 289.28L19.49 289.5L19.89 289.71L20.32 289.9L20.77 290.07L21.23 290.23L21.71 290.36L21.94 290.41L22.17 290.46L22.4 290.49L22.62 290.52L22.86 290.53L23.09 290.54L23.32 290.53L23.56 290.52L23.81 290.49L24.06 290.45L24.31 290.4L24.57 290.34L24.84 290.27L25.11 290.18L25.4 290.08L25.69 289.97L25.99 289.84L26.3 289.7L26.62 289.55L26.95 289.38L27.29 289.19L27.65 288.99L28.02 288.78L28.4 288.55L28.79 288.3L29.2 288.04L29.63 287.76L30.07 287.46L30.53 287.14L31 286.81L31.49 286.46L32 286.09L32.53 285.7L33.08 285.3L33.65 284.87L34.24 284.42L34.85 283.96L35.49 283.47L36.14 282.96L36.82 282.43L39.05 280.7L41.18 279.06L43.22 277.5L45.16 276.04L47 274.66L48.76 273.38L50.43 272.19L52.01 271.09L53.51 270.07L54.93 269.16L56.27 268.33L57.53 267.59L58.72 266.95L59.83 266.39L60.88 265.93L61.86 265.56L62.77 265.28L63.62 265.1L64.41 265.01L65.14 265.01L65.81 265.1L66.43 265.29L67 265.57L67.52 265.94L67.99 266.4L68.41 266.96L68.8 267.62L69.14 268.36L69.44 269.21L69.71 270.14L69.95 271.17L70.15 272.3L70.32 273.51L70.47 274.83L70.59 276.24L70.69 277.74L70.77 279.34L70.83 281.03L70.87 282.82L70.91 284.71L70.92 285.45L70.93 286.22L70.94 287.02L70.95 287.85L70.96 288.7L70.97 289.58L70.99 290.48L71 291.4L71.01 292.35L71.03 293.31L71.04 294.29L71.06 295.29L71.07 296.3L71.09 297.33L71.11 298.37L71.12 299.43L71.14 300.49L71.16 301.56L71.18 302.64L71.19 303.73L71.21 304.82L71.23 305.91L71.25 307.01L71.26 308.11L71.28 309.21L71.3 310.3L71.32 311.4L71.34 312.49L71.36 313.57L71.37 314.65L71.39 315.72L71.41 316.78L71.43 317.83L71.45 318.87L71.47 319.89L71.48 320.9L71.5 321.89L71.52 322.87L71.54 323.83L71.55 324.76L71.57 325.71L71.59 326.69L71.61 327.71L71.62 328.77L71.64 329.85L71.66 330.97L71.68 332.11L71.7 333.28L71.72 334.48L71.74 335.7L71.76 336.94L71.78 338.21L71.79 339.49L71.81 340.79L71.83 342.1L71.85 343.43L71.87 344.77L71.89 346.13L71.91 347.49L71.93 348.86L71.95 350.23L71.97 351.61L71.98 352.99L72 354.37L72.02 355.75L72.04 357.12L72.05 358.5L72.07 359.86L72.09 361.22L72.1 362.57L72.12 363.91L72.14 365.24L72.15 366.55L72.17 367.85L72.18 369.12L72.2 370.38L72.21 371.62L72.22 372.84L72.23 374.03L72.25 375.2L72.26 376.38L72.28 377.62L72.3 378.91L72.33 380.25L72.36 381.64L72.4 383.08L72.44 384.56L72.48 386.09L72.53 387.65L72.58 389.25L72.64 390.89L72.7 392.57L72.77 394.27L72.83 396L72.9 397.76L72.98 399.54L73.05 401.35L73.13 403.17L73.22 405.02L73.3 406.88L73.39 408.75L73.48 410.63L73.58 412.52L73.67 414.42L73.77 416.32L73.87 418.22L73.98 420.13L74.08 422.03L74.19 423.92L74.3 425.81L74.41 427.69L74.52 429.56L74.63 431.41L74.75 433.25L74.86 435.07L74.98 436.87L75.1 438.64L75.22 440.39L75.34 442.12L75.46 443.81L75.82 448.96L76.17 454L76.49 458.95L76.79 463.8L77.07 468.56L77.32 473.22L77.56 477.79L77.78 482.27L77.97 486.67L78.14 490.97L78.29 495.2L78.42 499.34L78.53 503.4L78.61 507.38L78.68 511.29L78.72 515.12L78.74 518.88L78.74 522.57L78.71 526.19L78.67 529.75L78.6 533.23L78.51 536.66L78.4 540.02L78.27 543.33L78.11 546.57L77.94 549.77L77.74 552.9L77.52 555.99L77.27 559.03L77.01 562.01L76.72 564.96L76.41 567.85L76.08 570.71L75.73 573.53L75.35 576.3L74.95 579.04L74.53 581.75L74.09 584.42L73.62 587.06L73.13 589.68L72.84 591.2L72.57 592.66L72.31 594.08L72.07 595.45L71.84 596.77L71.63 598.04L71.43 599.27L71.25 600.44L71.08 601.58L70.93 602.66L70.8 603.7L70.68 604.7L70.57 605.65L70.49 606.56L70.41 607.43L70.36 608.26L70.31 609.05L70.29 609.8L70.28 610.51L70.28 611.18L70.3 611.81L70.34 612.4L70.39 612.96L70.46 613.49L70.55 613.98L70.65 614.43L70.76 614.85L70.89 615.24L71.04 615.6L71.2 615.92L71.38 616.22L71.57 616.48L71.78 616.72L72.01 616.93L72.25 617.1L72.51 617.26L72.78 617.38L73.07 617.48L73.38 617.56L73.7 617.61L74.25 617.67L74.78 617.71L75.3 617.73L75.79 617.74L76.26 617.72L76.72 617.68L77.15 617.62L77.57 617.54L77.98 617.43L78.36 617.3L78.74 617.14L79.09 616.95L79.43 616.74L79.76 616.49L80.08 616.22L80.38 615.91L80.67 615.57L80.95 615.19L81.22 614.78L81.47 614.34L81.72 613.86L81.96 613.33L82.19 612.77L82.41 612.17L82.62 611.53L82.83 610.85L83.03 610.12L83.23 609.35L83.42 608.54L83.6 607.67L83.78 606.76L83.96 605.8L84.13 604.79L84.3 603.73L84.47 602.62L84.64 601.46L84.81 600.24L84.98 598.97L85.15 597.64L85.32 596.25L85.42 595.46L85.53 594.68L85.66 593.91L85.79 593.17L85.94 592.44L86.09 591.73L86.26 591.04L86.43 590.37L86.62 589.72L86.81 589.08L87.02 588.47L87.24 587.87L87.46 587.29L87.7 586.73L87.95 586.19L88.2 585.66L88.47 585.16L88.74 584.67L89.03 584.21L89.32 583.76L89.63 583.33L89.94 582.92L90.27 582.53L90.6 582.16L90.94 581.81L91.3 581.48L91.66 581.17L92.03 580.88L92.41 580.61L92.8 580.35L93.19 580.12L93.6 579.91L94.02 579.72L94.44 579.55L94.88 579.4L95.32 579.26L95.77 579.15L96.23 579.06L96.7 578.99L97.18 578.95L97.55 578.94L97.92 578.98L98.29 579.06L98.65 579.19L99.01 579.36L99.37 579.58L99.73 579.84L100.08 580.14L100.43 580.49L100.78 580.88L101.13 581.31L101.47 581.79L101.8 582.3L102.14 582.86L102.47 583.46L102.79 584.11L103.12 584.79L103.43 585.51L103.75 586.28L104.06 587.08L104.36 587.92L104.66 588.81L104.96 589.73L105.25 590.69L105.54 591.69L105.82 592.73L106.09 593.8L106.37 594.91L106.63 596.07L106.89 597.25L107.15 598.48L107.4 599.74L107.64 601.03L107.88 602.37L108.11 603.74L108.33 605.14L108.55 606.58L108.77 608.05L108.97 609.56L109.17 611.1L109.27 611.88L109.37 612.65L109.48 613.41L109.59 614.17L109.69 614.93L109.81 615.68L109.92 616.42L110.03 617.15L110.15 617.87L110.27 618.58L110.39 619.28L110.5 619.97L110.63 620.65L110.75 621.32L110.87 621.97L110.99 622.61L111.12 623.23L111.24 623.84L111.36 624.44L111.49 625.01L111.61 625.57L111.73 626.11L111.85 626.63L111.97 627.14L112.1 627.62L112.21 628.08L112.33 628.52L112.45 628.94L112.57 629.34L112.68 629.71L112.79 630.06L112.9 630.38L113.01 630.68L113.12 630.95L113.22 631.19L113.33 631.41L113.43 631.6L113.52 631.76L113.62 631.89L113.71 631.99L113.91 632.17L114.14 632.32L114.38 632.46L114.64 632.57L114.91 632.66L115.2 632.73L115.5 632.79L115.81 632.82L116.13 632.84L116.46 632.84L116.8 632.82L117.14 632.78L117.49 632.73L117.84 632.66L118.2 632.58L118.56 632.48L118.92 632.37L119.28 632.24L119.64 632.1L120 631.95L120.36 631.78L120.71 631.61L121.05 631.42L121.39 631.22L121.73 631.01L122.05 630.79L122.36 630.56L122.67 630.32L122.96 630.07L123.23 629.81L123.5 629.55L123.75 629.28L123.98 629L124.19 628.72L124.39 628.43L124.57 628.14L124.72 627.84L124.86 627.54L124.97 627.23L125.05 626.92L125.08 626.78L125.1 626.63L125.12 626.46L125.13 626.28L125.14 626.07L125.14 625.85L125.14 625.62L125.13 625.37L125.12 625.1L125.11 624.83L125.09 624.54L125.06 624.23L125.04 623.91L125 623.58L124.97 623.24L124.93 622.89L124.88 622.53L124.83 622.16L124.78 621.77L124.72 621.38L124.66 620.98L124.6 620.57L124.53 620.16L124.46 619.73L124.39 619.3L124.31 618.87L124.23 618.42L124.15 617.98L124.06 617.52L123.97 617.07L123.88 616.6L123.78 616.14L123.68 615.67L123.58 615.2L123.47 614.73L123.37 614.25L123.26 613.78L123.15 613.3L123.03 612.83L122.91 612.35L122.72 611.53L122.5 610.61L122.28 609.6L122.05 608.5L121.8 607.31L121.55 606.05L121.28 604.71L121.01 603.3L120.73 601.81L120.44 600.26L120.14 598.65L119.84 596.98L119.54 595.26L119.22 593.48L118.91 591.65L118.58 589.79L118.26 587.88L117.93 585.93L117.6 583.95L117.27 581.94L116.94 579.91L116.61 577.85L116.28 575.78L115.95 573.69L115.62 571.59L115.29 569.48L114.97 567.36L114.65 565.25L114.33 563.14L114.02 561.04L113.71 558.95L113.41 556.87L113.11 554.81L112.82 552.77L112.54 550.75L112.27 548.77L112 546.82L111.74 544.9L111.5 543.02L111.26 541.19L111.12 540.03L110.98 538.84L110.84 537.61L110.71 536.36L110.58 535.08L110.46 533.77L110.34 532.45L110.23 531.11L110.12 529.76L110.01 528.39L109.91 527.02L109.82 525.64L109.73 524.26L109.64 522.88L109.56 521.5L109.49 520.13L109.42 518.76L109.35 517.41L109.29 516.08L109.24 514.76L109.2 513.46L109.16 512.19L109.12 510.95L109.09 509.73L109.07 508.55L109.06 507.4L109.05 506.29L109.04 505.22L109.05 504.2L109.06 503.22L109.08 502.29L109.1 501.42L109.14 500.6L109.18 499.84L109.22 499.14L109.28 498.51L109.34 497.94L109.41 497.45L109.49 497.03L109.58 496.68L109.62 496.52L109.67 496.35L109.71 496.18L109.75 495.99L109.78 495.8L109.82 495.61L109.85 495.4L109.88 495.2L109.9 494.98L109.93 494.77L109.95 494.54L109.97 494.32L109.99 494.08L110 493.85L110.02 493.61L110.03 493.37L110.04 493.12L110.04 492.88L110.05 492.63L110.05 492.38L110.05 492.12L110.04 491.87L110.04 491.61L110.03 491.36L110.02 491.1L110.01 490.84L109.99 490.59L109.98 490.33L109.96 490.08L109.94 489.82L109.91 489.57L109.88 489.32L109.86 489.07L109.82 488.82L109.79 488.58L109.76 488.33L109.72 488.1L109.68 487.86L109.63 487.63L109.59 487.4L109.39 486.33L109.23 485.22L109.11 484.06L109.02 482.87L108.97 481.65L108.95 480.39L108.96 479.11L109.01 477.81L109.08 476.48L109.18 475.14L109.32 473.78L109.48 472.42L109.66 471.04L109.88 469.67L110.12 468.29L110.38 466.92L110.67 465.55L110.97 464.19L111.31 462.84L111.66 461.51L112.03 460.2L112.42 458.91L112.83 457.65L113.25 456.42L113.69 455.22L114.15 454.05L114.62 452.92L115.1 451.84L115.6 450.8L116.11 449.81L116.63 448.88L117.16 448L117.69 447.17L118.24 446.41L118.79 445.72L119.35 445.09L119.92 444.54L120.49 444.06L121.06 443.66L121.63 443.34L121.92 443.22L122.21 443.12L122.51 443.04L122.82 442.98L123.14 442.95L123.46 442.93L123.79 442.93L124.13 442.96L124.47 443L124.81 443.06L125.16 443.14L125.52 443.24L125.88 443.35L126.23 443.49L126.6 443.64L126.96 443.8L127.32 443.99L127.69 444.19L128.05 444.4L128.42 444.63L128.78 444.87L129.14 445.13L129.49 445.41L129.85 445.69L130.2 445.99L130.55 446.31L130.89 446.63L131.22 446.97L131.56 447.32L131.88 447.68L132.2 448.05L132.51 448.44L132.81 448.83L133.1 449.24L133.38 449.65L133.66 450.07L133.92 450.5L134.18 450.94L134.42 451.39L134.65 451.85L134.93 452.42L135.21 452.98L135.5 453.51L135.78 454.03L136.07 454.53L136.35 455.01L136.64 455.47L136.92 455.92L137.21 456.34L137.5 456.75L137.78 457.13L138.07 457.5L138.35 457.84L138.64 458.17L138.92 458.48L139.2 458.77L139.49 459.03L139.77 459.28L140.05 459.51L140.32 459.72L140.6 459.9L140.87 460.07L141.14 460.22L141.41 460.34L141.68 460.45L141.95 460.53L142.21 460.6L142.47 460.64L142.73 460.66L142.98 460.66L143.23 460.64L143.48 460.6L143.73 460.53L143.97 460.45L144.21 460.34L144.44 460.21L144.67 460.06L144.9 459.89L145.12 459.69L145.34 459.48L145.45 459.35L145.54 459.2L145.63 459.04L145.71 458.86L145.77 458.66L145.83 458.44L145.87 458.21L145.91 457.95L145.93 457.68L145.94 457.39L145.94 457.07L145.93 456.74L145.91 456.39L145.87 456.01L145.83 455.62L145.77 455.2L145.7 454.76L145.62 454.31L145.53 453.82L145.43 453.32L145.32 452.79L145.19 452.25L145.05 451.67L144.9 451.08L144.74 450.46L144.56 449.81L144.38 449.15L144.18 448.45L143.97 447.73L143.75 446.99L143.51 446.22L143.26 445.43L143 444.61L142.73 443.76L142.44 442.89L142.15 441.98L141.84 441.06L141.51 440.1L141.18 439.12L140.83 438.1L139.81 435.15L138.83 432.28L137.88 429.47L136.97 426.72L136.09 424.02L135.24 421.38L134.41 418.77L133.62 416.2L132.86 413.66L132.12 411.14L131.4 408.63L130.71 406.14L130.04 403.65L129.39 401.15L128.76 398.64L128.15 396.12L127.55 393.57L126.97 390.99L126.4 388.38L125.84 385.72L125.3 383.01L124.76 380.25L124.24 377.42L123.72 374.53L123.2 371.56L122.69 368.51L122.19 365.37L121.68 362.13L121.18 358.79L120.67 355.35L120.16 351.79L119.65 348.11L119.14 344.31L118.61 340.37L118.08 336.29L117.55 332.06L117 327.68L116.44 323.14L115.86 318.43L115.27 313.55L114.92 310.56L114.58 307.64L114.25 304.78L113.93 301.99L113.63 299.27L113.34 296.6L113.07 293.99L112.8 291.43L112.55 288.92L112.32 286.45L112.09 284.03L111.88 281.65L111.68 279.3L111.49 276.99L111.31 274.7L111.15 272.44L110.99 270.21L110.85 267.99L110.72 265.79L110.6 263.61L110.49 261.44L110.39 259.27L110.3 257.1L110.22 254.94L110.15 252.77L110.09 250.6L110.04 248.42L110 246.22L109.96 244.01L109.94 241.78L109.93 239.53L109.92 237.25L109.93 234.95L109.94 232.61L109.96 230.23L109.99 227.82L110.02 225.37L110.07 222.87L110.12 220.32L110.18 217.72L110.2 216.57L110.23 215.36L110.25 214.1L110.27 212.78L110.29 211.42L110.31 210.02L110.32 208.56L110.34 207.07L110.35 205.54L110.36 203.97L110.37 202.36L110.38 200.73L110.39 199.06L110.39 197.36L110.4 195.64L110.4 193.89L110.4 192.12L110.4 190.33L110.4 188.52L110.4 186.7L110.39 184.87L110.39 183.02L110.38 181.17L110.37 179.31L110.36 177.44L110.35 175.58L110.34 173.71L110.32 171.84L110.31 169.98L110.29 168.13L110.27 166.29L110.25 164.45L110.23 162.64L110.21 160.83L110.18 159.05L110.16 157.28L110.13 155.54L110.1 153.82L110.07 152.13L110.04 150.46L110.01 148.78L109.98 147.04L109.95 145.24L109.93 143.38L109.9 141.47L109.88 139.51L109.86 137.5L109.85 135.45L109.83 133.36L109.82 131.22L109.81 129.05L109.8 126.85L109.79 124.61L109.79 122.35L109.79 120.06L109.79 117.76L109.79 115.43L109.79 113.08L109.8 110.73L109.8 108.36L109.81 105.99L109.83 103.61L109.84 101.23L109.85 98.84L109.87 96.47L109.89 94.1L109.91 91.74L109.93 89.39L109.96 87.06L109.98 84.75L110.01 82.45L110.04 80.18L110.07 77.94L110.1 75.73L110.14 73.55L110.18 71.4L110.21 69.3L110.26 67.23L110.3 65.21L110.34 63.24L110.38 61.29L110.42 59.37L110.46 57.46L110.49 55.57L110.52 53.7L110.54 51.85L110.56 50.03L110.58 48.24L110.6 46.47L110.61 44.73L110.61 43.02L110.62 41.35L110.62 39.7L110.61 38.1L110.61 36.53L110.6 35L110.58 33.51L110.57 32.06L110.55 30.66L110.52 29.3L110.5 27.98L110.47 26.72L110.44 25.5L110.4 24.34L110.36 23.23L110.32 22.18L110.28 21.18L110.23 20.24L110.18 19.36L110.13 18.54L110.07 17.79L110.01 17.1L109.95 16.47L109.89 15.91L109.82 15.43L109.75 15.01L109.68 14.67L109.6 14.4L109.52 14.2L109.44 14.09L109.13 13.82L108.78 13.58L108.39 13.35L107.97 13.15L107.5 12.97L107 12.81L106.47 12.67L105.91 12.55L105.31 12.45L104.69 12.37L104.03 12.31L103.35 12.27L102.64 12.25L101.91 12.25L101.15 12.27L100.37 12.3Z" id="a31oHpErPj"></path></defs><g><g><g><use xlink:href="#cFbfNF4Xw" opacity="1" fill="#ac724f" fill-opacity="1"></use><g><use xlink:href="#cFbfNF4Xw" opacity="1" fill-opacity="0" stroke="#000000" stroke-width="1" stroke-opacity="1"></use></g></g><g><use xlink:href="#a31oHpErPj" opacity="1" fill="#55321b" fill-opacity="1"></use><g><use xlink:href="#a31oHpErPj" opacity="1" fill-opacity="0" stroke="#000000" stroke-width="1" stroke-opacity="0"></use></g></g></g></g></svg>